<svg width="20.155853" height="24.704163" viewBox="0 0 20.1559 24.7042" fill="none" xmlns="http://www.w3.org/2000/svg" xmlns:xlink="http://www.w3.org/1999/xlink">
	<desc>
			Created with Pixso.
	</desc>
	<defs/>
	<path id="Vector" d="M16.75 13.2C16.75 10.09 19.35 8.59 19.45 8.49C17.95 6.39 15.75 6.09 14.95 5.99C13.05 5.79 11.15 7.09 10.25 7.09C9.25 7.09 7.75 5.99 6.15 5.99C4.05 5.99 2.15 7.19 1.05 9.09C-1.15 12.89 0.45 18.49 2.55 21.59C3.65 23.09 4.85 24.79 6.45 24.7C8.05 24.59 8.65 23.7 10.55 23.7C12.45 23.7 12.95 24.7 14.65 24.7C16.35 24.7 17.45 23.2 18.45 21.7C19.65 19.99 20.15 18.29 20.15 18.2C20.05 18.09 16.75 16.89 16.75 13.2Z" fill="#582EFF" fill-opacity="1.000000" fill-rule="nonzero"/>
	<path id="Vector" d="M13.65 4C14.45 2.9 15.05 1.5 14.95 0C13.75 0.09 12.15 0.79 11.35 1.9C10.55 2.79 9.85 4.29 10.05 5.7C11.35 5.79 12.75 5 13.65 4Z" fill="#582EFF" fill-opacity="1.000000" fill-rule="nonzero"/>
</svg>



