<svg width="78.000000" height="68.000000" viewBox="0 0 78 68" fill="none" xmlns="http://www.w3.org/2000/svg" xmlns:xlink="http://www.w3.org/1999/xlink">
	<desc>
			Created with Pixso.
	</desc>
	<defs>
		<filter id="filter_1_313_dd" x="2.500000" y="0.000000" width="72.999512" height="64.661774" filterUnits="userSpaceOnUse" color-interpolation-filters="sRGB">
			<feFlood flood-opacity="0" result="BackgroundImageFix"/>
			<feColorMatrix in="SourceAlpha" type="matrix" values="0 0 0 0 0 0 0 0 0 0 0 0 0 0 0 0 0 0 127 0" result="hardAlpha"/>
			<feOffset dx="0" dy="4"/>
			<feGaussianBlur stdDeviation="1.33333"/>
			<feComposite in2="hardAlpha" operator="out" k2="-1" k3="1"/>
			<feColorMatrix type="matrix" values="0 0 0 0 0 0 0 0 0 0 0 0 0 0 0 0 0 0 0.25 0"/>
			<feBlend mode="normal" in2="BackgroundImageFix" result="effect_dropShadow_1"/>
			<feBlend mode="normal" in="SourceGraphic" in2="effect_dropShadow_1" result="shape"/>
		</filter>
		<clipPath id="clip1_312">
			<rect id="Frame" rx="5.000000" width="78.000000" height="68.000000" fill="white" fill-opacity="0"/>
		</clipPath>
	</defs>
	<rect id="Frame" rx="5.000000" width="78.000000" height="68.000000" fill="#C0FEEF" fill-opacity="1.000000"/>
	<g clip-path="url(#clip1_312)">
		<g filter="url(#filter_1_313_dd)">
			<path id="Vector" d="M28.4 43.37C28.38 43.3 28.36 43.23 28.33 43.16C28.3 43.09 28.26 43.03 28.21 42.97C28.17 42.91 28.11 42.85 28.05 42.8C28 42.75 27.93 42.7 27.86 42.66C27.79 42.62 27.72 42.59 27.64 42.56C27.57 42.53 27.49 42.51 27.4 42.5C27.24 42.47 27.07 42.47 26.91 42.5C26.83 42.51 26.75 42.53 26.67 42.56C26.59 42.59 26.52 42.62 26.45 42.66C26.38 42.7 26.32 42.75 26.26 42.8C26.2 42.85 26.15 42.91 26.1 42.97C26.05 43.03 26.02 43.09 25.98 43.16C25.95 43.23 25.93 43.3 25.91 43.37C25.9 43.44 25.89 43.51 25.89 43.58C25.89 43.65 25.9 43.73 25.91 43.8C25.93 43.87 25.95 43.94 25.98 44.01C26.02 44.07 26.05 44.14 26.1 44.2C26.15 44.26 26.2 44.31 26.26 44.37C26.32 44.42 26.38 44.46 26.45 44.5C26.52 44.54 26.59 44.58 26.67 44.6C26.75 44.63 26.83 44.65 26.91 44.67C26.99 44.68 27.07 44.69 27.16 44.69C27.24 44.69 27.32 44.68 27.4 44.67C27.49 44.65 27.57 44.63 27.64 44.6C27.72 44.58 27.79 44.54 27.86 44.5C27.93 44.46 28 44.42 28.05 44.37C28.11 44.31 28.17 44.26 28.21 44.2C28.26 44.14 28.3 44.07 28.33 44.01C28.36 43.94 28.38 43.87 28.4 43.8C28.42 43.73 28.43 43.65 28.43 43.58C28.43 43.51 28.42 43.44 28.4 43.37Z" fill="#31C5A1" fill-opacity="1.000000" fill-rule="nonzero"/>
			<path id="Vector" d="M64.89 43.71C64.89 43.7 64.88 43.69 64.88 43.68C63.71 41.29 60.97 40.41 57.73 41.38L48.88 43.51C48.37 42.16 47.09 41.01 45.29 40.43C45.28 40.42 45.27 40.42 45.26 40.42L35.53 37.54C34.73 36.63 32.19 34.29 27.44 34.29C24.13 34.29 21.19 36.28 19.52 38.44L7.76 38.44C7.06 38.44 6.5 38.93 6.5 39.55L6.5 53.5C6.5 54.11 7.06 54.61 7.76 54.61L15.31 54.61C16.01 54.61 16.58 54.11 16.58 53.5L16.58 52.54L20.12 52.54C20.82 52.54 21.39 52.05 21.39 51.44L21.39 51.12C23.46 51.28 24.13 51.62 26.03 52.57C27.49 53.3 29.69 54.41 33.66 55.97C33.67 55.97 33.69 55.98 33.71 55.99C34.47 56.25 35.96 56.66 37.8 56.66C39.07 56.66 40.52 56.46 42 55.87L61.55 49.77C61.59 49.76 61.62 49.75 61.65 49.73C63.52 48.98 66.31 46.87 64.89 43.71ZM14.04 52.39L9.03 52.39L9.03 40.65L14.04 40.65L14.04 52.39ZM18.85 50.33L16.58 50.33L16.58 40.65L18.85 40.65L18.85 50.33ZM60.64 47.7L41.1 53.8C41.08 53.81 41.06 53.82 41.04 53.82C41.02 53.83 41.01 53.83 40.99 53.84C38.27 54.93 35.68 54.28 34.67 53.93C30.84 52.43 28.79 51.4 27.3 50.65C25.22 49.61 24.22 49.1 21.39 48.9L21.39 39.99C22.6 38.27 24.93 36.51 27.44 36.51C31.76 36.51 33.59 38.95 33.66 39.05C33.81 39.27 34.05 39.44 34.33 39.52L44.42 42.51C46.03 43.03 46.89 44.24 46.49 45.44C46.31 45.99 45.9 46.45 45.32 46.73C44.75 47.01 44.09 47.08 43.45 46.92L32.08 43.78C31.41 43.6 30.7 43.92 30.49 44.5C30.28 45.09 30.65 45.71 31.31 45.89L42.71 49.04C42.72 49.04 42.73 49.05 42.74 49.05C43.2 49.16 43.66 49.22 44.12 49.22C44.96 49.22 45.8 49.03 46.55 48.66C47.72 48.1 48.57 47.16 48.94 46.04C48.97 45.95 48.99 45.86 49.01 45.77L58.55 43.47C59.92 43.06 61.73 42.91 62.53 44.53C63.37 46.43 61.2 47.47 60.64 47.7Z" fill="#31C5A1" fill-opacity="1.000000" fill-rule="nonzero"/>
			<path id="Vector" d="M52.08 14.55C52.06 14.48 52.04 14.41 52.01 14.34C51.97 14.28 51.94 14.21 51.89 14.15C51.84 14.09 51.79 14.04 51.73 13.98C51.67 13.93 51.61 13.89 51.54 13.85C51.47 13.81 51.4 13.77 51.32 13.75C51.24 13.72 51.16 13.7 51.08 13.68C50.92 13.65 50.75 13.65 50.59 13.68C50.5 13.7 50.42 13.72 50.35 13.75C50.27 13.77 50.2 13.81 50.13 13.85C50.06 13.89 49.99 13.93 49.94 13.98C49.88 14.04 49.82 14.09 49.78 14.15C49.73 14.21 49.69 14.28 49.66 14.34C49.63 14.41 49.6 14.48 49.59 14.55C49.57 14.62 49.56 14.7 49.56 14.77C49.56 14.84 49.57 14.91 49.59 14.98C49.6 15.05 49.63 15.12 49.66 15.19C49.69 15.26 49.73 15.32 49.78 15.38C49.82 15.44 49.88 15.5 49.94 15.55C49.99 15.6 50.06 15.65 50.13 15.69C50.2 15.73 50.27 15.76 50.35 15.79C50.42 15.82 50.5 15.84 50.59 15.85C50.67 15.87 50.75 15.87 50.83 15.87C50.92 15.87 51 15.87 51.08 15.85C51.16 15.84 51.24 15.82 51.32 15.79C51.4 15.76 51.47 15.73 51.54 15.69C51.61 15.65 51.67 15.6 51.73 15.55C51.79 15.5 51.84 15.44 51.89 15.38C51.94 15.32 51.97 15.26 52.01 15.19C52.04 15.12 52.06 15.05 52.08 14.98C52.1 14.91 52.1 14.84 52.1 14.77C52.1 14.7 52.1 14.62 52.08 14.55Z" fill="#31C5A1" fill-opacity="1.000000" fill-rule="nonzero"/>
			<path id="Vector" d="M70.22 3.74L62.68 3.74C61.98 3.74 61.41 4.24 61.41 4.85L61.41 5.81L57.87 5.81C57.17 5.81 56.6 6.3 56.6 6.91L56.6 7.23C54.53 7.07 53.86 6.73 51.96 5.78C50.5 5.05 48.3 3.94 44.33 2.39C44.32 2.38 44.3 2.37 44.28 2.36C42.99 1.92 39.6 1.05 35.99 2.48L30.88 4.07L26.57 0.32C26.08 -0.11 25.27 -0.11 24.78 0.32L10.64 12.64C10.18 13.04 10.1 13.73 10.64 14.21L34.8 35.27C35.18 35.61 36.09 35.71 36.59 35.27L49.5 24.02C49.84 24.04 50.18 24.06 50.54 24.06C53.86 24.06 56.8 22.07 58.47 19.91L70.22 19.91C70.93 19.91 71.49 19.42 71.49 18.8L71.49 4.85C71.49 4.24 70.93 3.74 70.22 3.74ZM25.68 2.67L28.57 5.19C27.71 5.65 26.71 5.9 25.68 5.9C24.64 5.9 23.64 5.65 22.78 5.19L25.68 2.67ZM16.23 15.95L13.33 13.43L16.23 10.9C16.76 11.65 17.04 12.52 17.04 13.43C17.04 14.33 16.76 15.2 16.23 15.95ZM35.7 32.92L32.8 30.4C34.57 29.45 36.82 29.45 38.59 30.4L35.7 32.92ZM40.42 28.81C37.61 27.03 33.78 27.03 30.97 28.81L18.06 17.54C19.05 16.35 19.58 14.93 19.58 13.43C19.58 11.93 19.05 10.5 18.06 9.31L20.95 6.78C22.32 7.65 23.95 8.12 25.68 8.12C27.4 8.12 29.03 7.65 30.4 6.78L33.14 9.18C32.55 9.25 31.97 9.42 31.43 9.69C30.52 10.13 29.81 10.79 29.37 11.59C27.93 11.82 26.61 12.43 25.57 13.33C22.75 15.79 22.75 19.8 25.57 22.26C26.98 23.49 28.83 24.1 30.69 24.1C32.54 24.1 34.39 23.49 35.8 22.26C36.72 21.46 37.36 20.47 37.69 19.4L41.97 20.67C41.49 22.62 41.98 24.67 43.32 26.28L40.42 28.81ZM32.7 17.92C32.71 17.93 32.72 17.93 32.73 17.93L35.27 18.69C35.08 19.44 34.65 20.13 34.01 20.69C32.18 22.29 29.2 22.29 27.36 20.69C25.53 19.09 25.53 16.5 27.36 14.9C27.81 14.51 28.33 14.21 28.9 14.01C29.13 15.71 30.53 17.22 32.7 17.92ZM45.15 24.68C44.66 23.99 44.38 23.19 44.34 22.38C44.94 22.76 45.69 23.14 46.57 23.44L45.15 24.68ZM56.6 18.36C55.39 20.08 53.06 21.84 50.54 21.84C50.07 21.84 49.63 21.81 49.22 21.76C49.22 21.76 49.22 21.76 49.22 21.76C46.47 21.41 45 20.06 44.51 19.52C44.49 19.48 44.38 19.36 44.36 19.34C44.21 19.11 43.97 18.92 43.66 18.83L33.57 15.84C31.96 15.32 31.1 14.11 31.5 12.91C31.5 12.91 31.5 12.91 31.5 12.91C31.5 12.91 31.5 12.91 31.5 12.91C31.68 12.36 32.09 11.9 32.67 11.62C33.24 11.34 33.9 11.27 34.53 11.43L45.91 14.57C46.58 14.75 47.29 14.43 47.5 13.85C47.71 13.26 47.34 12.64 46.68 12.46L37.63 9.96L37.55 9.89C37.55 9.89 37.55 9.89 37.55 9.89L32.87 5.8L36.89 4.55C36.9 4.54 36.92 4.54 36.93 4.53C36.94 4.53 36.94 4.53 36.95 4.53C36.96 4.52 36.98 4.52 37 4.51C39.72 3.42 42.31 4.07 43.32 4.42C47.15 5.92 49.2 6.95 50.69 7.7C52.77 8.74 53.77 9.25 56.6 9.45L56.6 18.36ZM61.41 17.7L59.14 17.7L59.14 8.02L61.41 8.02L61.41 17.7ZM68.96 17.7L63.95 17.7L63.95 5.96L68.96 5.96L68.96 17.7Z" fill="#31C5A1" fill-opacity="1.000000" fill-rule="nonzero"/>
		</g>
	</g>
</svg>

