<svg width="149.488098" height="39.972656" viewBox="0 0 149.488 39.9727" fill="none" xmlns="http://www.w3.org/2000/svg" xmlns:xlink="http://www.w3.org/1999/xlink">
	<desc>
			Created with Pixso.
	</desc>
	<defs/>
	<path id="Vector" d="M42.99 20.75L33.58 30.16L26.36 37.34L25.55 38.11C25.39 38.28 25.22 38.4 25.06 38.52C24.98 38.56 24.9 38.64 24.9 38.64L24.45 38.97C21.86 40.59 18.37 40.22 16.14 37.99L1.25 22.94C-0.46 21.2 -0.42 18.4 1.33 16.69L17.27 1.24C19.02 -0.43 21.73 -0.43 23.44 1.28L26.56 4.4L26.68 4.52L35.12 12.92L42.99 20.75Z" fill="#24C6A1" fill-opacity="1.000000" fill-rule="nonzero"/>
	<path id="Vector" d="M42.99 20.75L33.58 30.16L26.36 37.34L25.55 38.11C25.39 38.28 25.22 38.4 25.06 38.52C24.98 38.56 24.9 38.64 24.9 38.64L24.45 38.97C24.66 38.72 26.68 36.25 24.13 33.04L14.23 22.86C12.53 21.12 12.57 18.32 14.31 16.61L26.56 4.4L26.68 4.52L35.12 12.92L42.99 20.75Z" fill="#0FA47F" fill-opacity="1.000000" fill-rule="nonzero"/>
	<path id="Vector" d="M44.33 10.41L41.09 7.08L35.73 1.52C34.07 -0.22 31.27 -0.26 29.52 1.4L27.58 3.39L26.56 4.4L26.68 4.52L33.74 11.54C34.47 12.27 34.47 13.49 33.74 14.22L28.79 19.01C27.05 20.71 27.01 23.51 28.75 25.25L33.62 30.16L42.99 20.75L44.29 19.49C46.77 16.98 46.81 12.92 44.33 10.41Z" fill="#5718FF" fill-opacity="1.000000" fill-rule="nonzero"/>
	<path id="Vector" d="M58.12 9.15C58.12 7.69 59.02 6.88 60.6 6.88C62.18 6.88 63.03 7.69 63.03 9.15C63.03 10.61 62.18 11.46 60.6 11.46C59.02 11.42 58.12 10.57 58.12 9.15ZM62.38 31.46L58.73 31.46L58.73 14.3L62.38 14.3L62.38 31.46Z" fill="#112945" fill-opacity="1.000000" fill-rule="nonzero"/>
	<path id="Vector" d="M78 14.3L77.43 17.67C76.95 17.38 76.22 17.22 75.28 17.22C73.21 17.22 70.94 18.88 70.94 22.37L70.94 31.46L67.29 31.46L67.29 14.3L70.42 14.3L70.74 17.38C71.67 15.15 73.5 13.93 76.18 13.93C76.83 13.98 77.51 14.06 78 14.3Z" fill="#112945" fill-opacity="1.000000" fill-rule="nonzero"/>
	<path id="Vector" d="M96.26 22.9C96.26 28.5 93.05 31.83 87.7 31.83C82.34 31.83 79.14 28.5 79.14 22.9C79.14 17.3 82.34 13.98 87.7 13.98C93.05 13.98 96.26 17.3 96.26 22.9ZM82.87 22.9C82.87 26.8 84.62 28.95 87.7 28.95C90.78 28.95 92.57 26.8 92.57 22.9C92.57 19.01 90.78 16.86 87.7 16.86C84.62 16.86 82.87 19.01 82.87 22.9Z" fill="#112945" fill-opacity="1.000000" fill-rule="nonzero"/>
	<path id="Vector" d="M110.82 14.3L110.25 17.67C109.77 17.38 109.04 17.22 108.1 17.22C106.04 17.22 103.76 18.88 103.76 22.37L103.76 31.46L100.11 31.46L100.11 14.3L103.24 14.3L103.56 17.38C104.49 15.15 106.32 13.93 109 13.93C109.65 13.98 110.34 14.06 110.82 14.3Z" fill="#112945" fill-opacity="1.000000" fill-rule="nonzero"/>
	<path id="Vector" d="M129 14.3L129 31.46L125.75 31.46L125.63 28.7C124.41 30.85 122.26 31.83 119.54 31.83C116.1 31.83 113.38 30.08 113.38 25.62L113.38 14.3L117.03 14.3L117.03 24.6C117.03 27.81 118.41 28.74 120.56 28.74C123.16 28.74 125.35 27.16 125.35 23.51L125.35 14.3L129 14.3Z" fill="#112945" fill-opacity="1.000000" fill-rule="nonzero"/>
	<path id="Vector" d="M149.48 20.34L149.48 31.46L145.83 31.46L145.83 21.52C145.83 18.11 144.25 16.98 142.18 16.98C139.91 16.98 137.52 18.44 137.52 22.37L137.52 31.46L133.86 31.46L133.86 14.3L137.11 14.3L137.27 17.14C138.45 14.91 140.6 13.93 143.07 13.93C146.68 13.98 149.48 16.04 149.48 20.34Z" fill="#112945" fill-opacity="1.000000" fill-rule="nonzero"/>
</svg>
