<svg width="40.601166" height="5.799988" viewBox="0 0 40.6012 5.79999" fill="none" xmlns="http://www.w3.org/2000/svg" xmlns:xlink="http://www.w3.org/1999/xlink">
	<desc>
			Created with Pixso.
	</desc>
	<defs/>
	<path id="Vector" d="M0 2.9C0 1.09 1.29 0 2.89 0C4 0 4.7 0.5 5.2 1.2L4.39 1.7C4.1 1.2 3.6 0.79 3 0.79C1.89 0.79 1.1 1.59 1.1 2.79C1.1 4 1.89 4.79 3 4.79C3.6 4.79 4.1 4.5 4.29 4.29L4.29 3.4L2.6 3.4L2.6 2.59L5.29 2.59L5.29 4.7C4.79 5.29 4 5.7 3 5.7C1.29 5.79 0 4.59 0 2.9Z" fill="#545659" fill-opacity="1.000000" fill-rule="nonzero"/>
	<path id="Vector" d="M6.5 5.7L6.5 0L10.3 0L10.3 0.9L7.39 0.9L7.39 2.29L10.2 2.29L10.2 3.2L7.39 3.2L7.39 4.79L10.3 4.79L10.3 5.7L6.5 5.7Z" fill="#545659" fill-opacity="1.000000" fill-rule="nonzero"/>
	<path id="Vector" d="M13.1 5.7L13.1 0.9L11.4 0.9L11.4 0L15.8 0L15.8 0.9L14.1 0.9L14.1 5.59L13.1 5.59L13.1 5.7Z" fill="#545659" fill-opacity="1.000000" fill-rule="nonzero"/>
	<path id="Vector" d="M19.2 5.7L19.2 0L20.2 0L20.2 5.59L19.2 5.59L19.2 5.7Z" fill="#545659" fill-opacity="1.000000" fill-rule="nonzero"/>
	<path id="Vector" d="M22.9 5.7L22.9 0.9L21.2 0.9L21.2 0L25.6 0L25.6 0.9L23.9 0.9L23.9 5.59L22.9 5.59L22.9 5.7Z" fill="#545659" fill-opacity="1.000000" fill-rule="nonzero"/>
	<path id="Vector" d="M28.8 2.9C28.8 1.2 30 0 31.7 0C33.4 0 34.6 1.2 34.6 2.9C34.6 4.59 33.3 5.79 31.6 5.79C30 5.79 28.8 4.5 28.8 2.9ZM33.5 2.9C33.5 1.7 32.8 0.9 31.6 0.9C30.5 0.9 29.7 1.79 29.7 2.9C29.7 4.09 30.4 4.9 31.6 4.9C32.8 4.9 33.5 4 33.5 2.9Z" fill="#545659" fill-opacity="1.000000" fill-rule="nonzero"/>
	<path id="Vector" d="M39.6 5.7L36.7 1.7L36.7 5.7L35.7 5.7L35.7 0L36.7 0L39.6 3.9L39.6 0L40.6 0L40.6 5.59L39.6 5.59L39.6 5.7Z" fill="#545659" fill-opacity="1.000000" fill-rule="nonzero"/>
</svg>

