<svg width="51.847839" height="60.000000" viewBox="0 0 51.8478 60" fill="none" xmlns="http://www.w3.org/2000/svg" xmlns:xlink="http://www.w3.org/1999/xlink">
	<desc>
			Created with Pixso.
	</desc>
	<defs/>
	<path id="Vector" d="M43.22 0C43.21 0 43.21 0 43.2 0L8.64 0C3.87 0 0 2.52 0 5.62L0 53.43C0 57.05 4.52 60 10.08 60L41.76 60C47.32 60 51.84 57.05 51.84 53.43L51.84 5.62C51.84 2.52 47.98 0 43.22 0ZM8.64 1.87L43.19 1.87C43.19 1.87 43.2 1.87 43.2 1.87C46.38 1.87 48.96 3.55 48.96 5.62L2.88 5.62L2.88 5.62C2.88 3.55 5.46 1.87 8.64 1.87ZM41.76 54.37L25.92 54.37L10.08 54.37C6.11 54.37 2.88 52.27 2.88 49.68L2.88 48.75L25.92 48.75L48.96 48.75L48.96 49.68C48.96 52.27 45.73 54.37 41.76 54.37ZM2.88 7.5L48.96 7.5L48.96 46.87L2.88 46.87L2.88 7.5ZM41.76 58.12L10.08 58.12C6.59 58.12 3.68 56.5 3.02 54.36C4.84 55.52 7.33 56.25 10.08 56.25L41.76 56.25C44.51 56.25 47 55.52 48.82 54.36C48.15 56.5 45.24 58.12 41.76 58.12Z" fill="#582EFF" fill-opacity="1.000000" fill-rule="nonzero"/>
	<path id="Vector" d="M30.24 51.56C30.24 50.01 28.3 48.75 25.92 48.75C23.54 48.75 21.6 50.01 21.6 51.56C21.6 53.11 23.54 54.37 25.92 54.37C28.3 54.37 30.24 53.11 30.24 51.56ZM25.92 52.5C25.12 52.5 24.48 52.08 24.48 51.56C24.48 51.04 25.12 50.62 25.92 50.62C26.71 50.62 27.36 51.04 27.36 51.56C27.36 52.08 26.71 52.5 25.92 52.5Z" fill="#582EFF" fill-opacity="1.000000" fill-rule="nonzero"/>
	<path id="Vector" d="M12.21 32.8C12.22 32.8 12.23 32.81 12.24 32.81L39.6 32.81C41.59 32.81 43.2 31.76 43.2 30.46C43.2 29.17 41.59 28.12 39.6 28.12L12.24 28.12C10.25 28.12 8.64 29.17 8.64 30.46C8.64 31.75 10.24 32.79 12.21 32.8ZM39.6 29.99C40 29.99 40.32 30.2 40.32 30.46C40.32 30.72 40 30.93 39.6 30.93L12.25 30.93C12.25 30.93 12.24 30.93 12.24 30.93C11.84 30.93 11.52 30.72 11.52 30.46C11.52 30.2 11.84 29.99 12.24 29.99L39.6 29.99Z" fill="#582EFF" fill-opacity="1.000000" fill-rule="nonzero"/>
	<path id="Vector" d="M39.6 33.74L12.24 33.74C10.25 33.74 8.64 34.79 8.64 36.09C8.64 37.37 10.24 38.42 12.21 38.43C12.22 38.43 12.23 38.43 12.24 38.43L39.6 38.43C41.59 38.43 43.2 37.38 43.2 36.09C43.2 34.79 41.59 33.74 39.6 33.74ZM12.25 36.56C12.25 36.56 12.24 36.55 12.24 36.55C11.84 36.55 11.52 36.34 11.52 36.09C11.52 35.83 11.84 35.62 12.24 35.62L39.6 35.62C40 35.62 40.32 35.83 40.32 36.09C40.32 36.35 40 36.56 39.6 36.56L12.25 36.56Z" fill="#582EFF" fill-opacity="1.000000" fill-rule="nonzero"/>
	<path id="Vector" d="M33.12 40.31L18.72 40.31C17.92 40.31 17.28 40.73 17.28 41.24C17.28 41.76 17.92 42.18 18.72 42.18L33.12 42.18C33.92 42.18 34.56 41.76 34.56 41.24C34.56 40.73 33.92 40.31 33.12 40.31Z" fill="#582EFF" fill-opacity="1.000000" fill-rule="nonzero"/>
	<path id="Vector" d="M19.51 24.74C19.52 24.75 19.53 24.75 19.54 24.75C21.28 25.68 23.5 26.24 25.92 26.24C31.48 26.24 36 23.3 36 19.68C36 16.06 31.48 13.12 25.92 13.12C20.36 13.12 15.84 16.06 15.84 19.68C15.84 21.72 17.27 23.54 19.51 24.74ZM22.36 23.73C23.15 22.97 24.47 22.49 25.92 22.49C27.37 22.49 28.69 22.97 29.49 23.73C28.43 24.12 27.22 24.37 25.92 24.37C24.62 24.37 23.41 24.12 22.36 23.73ZM25.92 20.62C25.12 20.62 24.48 20.2 24.48 19.68C24.48 19.16 25.12 18.74 25.92 18.74C26.71 18.74 27.36 19.16 27.36 19.68C27.36 20.2 26.71 20.62 25.92 20.62ZM25.92 14.99C29.89 14.99 33.12 17.1 33.12 19.68C33.12 20.73 32.56 21.69 31.66 22.48C31.08 21.98 30.33 21.57 29.5 21.25C29.97 20.81 30.24 20.26 30.24 19.68C30.24 18.13 28.3 16.87 25.92 16.87C23.54 16.87 21.6 18.13 21.6 19.68C21.6 20.26 21.87 20.81 22.34 21.26C21.51 21.57 20.76 21.98 20.18 22.48C19.27 21.7 18.72 20.73 18.72 19.68C18.72 17.1 21.95 14.99 25.92 14.99Z" fill="#582EFF" fill-opacity="1.000000" fill-rule="nonzero"/>
</svg>


