<svg width="75.201508" height="6.800293" viewBox="0 0 75.2015 6.80029" fill="none" xmlns="http://www.w3.org/2000/svg" xmlns:xlink="http://www.w3.org/1999/xlink">
	<desc>
			Created with Pixso.
	</desc>
	<defs/>
	<path id="Vector" d="M5.2 3.4C5.2 4.5 4.89 5.4 4.2 6C3.6 6.5 2.7 6.8 1.5 6.8C0.89 6.8 0.39 6.8 0 6.7L0 0.4C0.5 0.3 1.1 0.3 1.79 0.3C2.89 0.3 3.7 0.5 4.29 1C4.89 1.6 5.2 2.4 5.2 3.4ZM4.2 3.4C4.2 2.7 4 2.1 3.6 1.7C3.2 1.3 2.6 1.1 1.89 1.1C1.6 1.1 1.29 1.1 1.1 1.2L1.1 5.9C1.2 5.9 1.5 5.9 1.79 5.9C2.6 5.9 3.2 5.7 3.6 5.3C3.89 4.9 4.2 4.2 4.2 3.4Z" fill="#545659" fill-opacity="1.000000" fill-rule="nonzero"/>
	<path id="Vector" d="M10.9 4.4C10.9 5.09 10.7 5.7 10.3 6.09C9.9 6.59 9.3 6.79 8.6 6.79C7.9 6.79 7.4 6.59 7 6.09C6.6 5.7 6.4 5.09 6.4 4.4C6.4 3.7 6.6 3.09 7 2.7C7.4 2.2 8 2 8.7 2C9.4 2 9.9 2.2 10.3 2.7C10.7 3.09 10.9 3.7 10.9 4.4ZM9.9 4.4C9.9 4 9.8 3.59 9.6 3.29C9.4 2.9 9.1 2.79 8.7 2.79C8.3 2.79 8 3 7.8 3.29C7.6 3.59 7.5 4 7.5 4.4C7.5 4.79 7.6 5.2 7.8 5.5C8 5.9 8.3 6 8.7 6C9.1 6 9.4 5.79 9.6 5.4C9.8 5.2 9.9 4.79 9.9 4.4Z" fill="#545659" fill-opacity="1.000000" fill-rule="nonzero"/>
	<path id="Vector" d="M18.5 2.1L17.1 6.7L16.2 6.7L15.6 4.7C15.4 4.2 15.3 3.7 15.2 3.2C15.1 3.7 15 4.2 14.8 4.7L14.2 6.7L13.3 6.7L11.9 2.1L12.9 2.1L13.4 4.3C13.5 4.8 13.6 5.3 13.7 5.8C13.8 5.4 13.9 4.9 14.1 4.3L14.8 2.1L15.6 2.1L16.2 4.2C16.4 4.7 16.5 5.2 16.6 5.7C16.7 5.2 16.8 4.7 16.9 4.2L17.5 2.1L18.5 2.1Z" fill="#545659" fill-opacity="1.000000" fill-rule="nonzero"/>
	<path id="Vector" d="M23.8 6.7L22.8 6.7L22.8 4.09C22.8 3.29 22.5 2.9 21.9 2.9C21.6 2.9 21.4 3 21.2 3.2C21 3.4 20.9 3.7 20.9 4L20.9 6.7L19.9 6.7L19.9 3.4C19.9 3 19.9 2.59 19.9 2.09L20.8 2.09L20.8 2.79C20.9 2.59 21.1 2.4 21.3 2.2C21.6 2.09 21.9 2 22.2 2C22.6 2 23 2.09 23.3 2.4C23.7 2.7 23.8 3.2 23.8 3.9L23.8 6.7Z" fill="#545659" fill-opacity="1.000000" fill-rule="nonzero"/>
	<path id="Vector" d="M26.59 6.7L25.59 6.7L25.59 0L26.59 0L26.59 6.7Z" fill="#545659" fill-opacity="1.000000" fill-rule="nonzero"/>
	<path id="Vector" d="M32.59 4.4C32.59 5.09 32.39 5.7 31.99 6.09C31.59 6.59 30.99 6.79 30.29 6.79C29.59 6.79 29.09 6.59 28.69 6.09C28.29 5.7 28.09 5.09 28.09 4.4C28.09 3.7 28.29 3.09 28.69 2.7C29.09 2.2 29.69 2 30.39 2C31.09 2 31.59 2.2 31.99 2.7C32.39 3.09 32.59 3.7 32.59 4.4ZM31.49 4.4C31.49 4 31.39 3.59 31.19 3.29C30.99 2.9 30.69 2.79 30.29 2.79C29.89 2.79 29.59 3 29.39 3.29C29.19 3.59 29.09 4 29.09 4.4C29.09 4.79 29.19 5.2 29.39 5.5C29.59 5.9 29.89 6 30.29 6C30.69 6 30.99 5.79 31.19 5.4C31.39 5.2 31.49 4.79 31.49 4.4Z" fill="#545659" fill-opacity="1.000000" fill-rule="nonzero"/>
	<path id="Vector" d="M37.5 6.7L36.6 6.7L36.5 6.2C36.2 6.59 35.7 6.79 35.2 6.79C34.8 6.79 34.4 6.7 34.2 6.4C34 6.09 33.8 5.79 33.8 5.5C33.8 4.9 34 4.5 34.5 4.2C35 3.9 35.6 3.79 36.5 3.79L36.5 3.7C36.5 3.09 36.2 2.79 35.6 2.79C35.1 2.79 34.8 2.9 34.4 3.09L34.2 2.4C34.6 2.09 35.1 2 35.8 2C37 2 37.6 2.59 37.6 3.9L37.6 5.59C37.4 6.09 37.5 6.4 37.5 6.7ZM36.4 5.09L36.4 4.4C35.3 4.4 34.7 4.7 34.7 5.29C34.7 5.5 34.8 5.7 34.9 5.79C35 5.9 35.2 6 35.4 6C35.6 6 35.8 5.9 36 5.79C36.2 5.7 36.3 5.5 36.4 5.29C36.4 5.29 36.4 5.2 36.4 5.09Z" fill="#545659" fill-opacity="1.000000" fill-rule="nonzero"/>
	<path id="Vector" d="M43.3 6.7L42.4 6.7L42.4 6C42.1 6.59 41.6 6.79 40.9 6.79C40.3 6.79 39.9 6.59 39.5 6.2C39.09 5.79 39 5.2 39 4.5C39 3.79 39.2 3.2 39.59 2.7C39.9 2.2 40.4 2 40.9 2C41.5 2 41.9 2.2 42.2 2.59L42.2 0L43.2 0L43.2 5.4C43.2 5.9 43.3 6.29 43.3 6.7ZM42.2 4.79L42.2 4C42.2 3.9 42.2 3.79 42.2 3.7C42.1 3.5 42 3.29 41.8 3.09C41.6 2.9 41.4 2.9 41.1 2.9C40.7 2.9 40.4 3.09 40.2 3.4C40 3.7 39.9 4.09 39.9 4.59C39.9 5.09 40 5.4 40.2 5.7C40.4 6 40.7 6.2 41.1 6.2C41.4 6.2 41.7 6.09 41.9 5.79C42.1 5.4 42.2 5.09 42.2 4.79Z" fill="#545659" fill-opacity="1.000000" fill-rule="nonzero"/>
	<path id="Vector" d="M51.99 4.4C51.99 5.09 51.79 5.7 51.39 6.09C50.99 6.59 50.39 6.79 49.7 6.79C49 6.79 48.5 6.59 48.1 6.09C47.7 5.7 47.5 5.09 47.5 4.4C47.5 3.7 47.7 3.09 48.1 2.7C48.5 2.2 49.1 2 49.8 2C50.49 2 50.99 2.2 51.39 2.7C51.79 3.09 51.99 3.7 51.99 4.4ZM50.89 4.4C50.89 4 50.79 3.59 50.59 3.29C50.39 2.9 50.1 2.79 49.7 2.79C49.3 2.79 49 3 48.8 3.29C48.6 3.59 48.5 4 48.5 4.4C48.5 4.79 48.6 5.2 48.8 5.5C49 5.9 49.3 6 49.7 6C50.1 6 50.39 5.79 50.59 5.4C50.79 5.2 50.89 4.79 50.89 4.4Z" fill="#545659" fill-opacity="1.000000" fill-rule="nonzero"/>
	<path id="Vector" d="M57.39 6.69L56.39 6.69L56.39 4.09C56.39 3.29 56.09 2.89 55.49 2.89C55.19 2.89 54.99 2.99 54.79 3.19C54.59 3.39 54.49 3.69 54.49 3.99L54.49 6.69L53.49 6.69L53.49 3.39C53.49 2.99 53.49 2.59 53.49 2.09L54.39 2.09L54.39 2.79C54.49 2.59 54.69 2.39 54.89 2.19C55.19 1.99 55.49 1.89 55.79 1.89C56.19 1.89 56.59 1.99 56.89 2.29C57.29 2.59 57.39 3.09 57.39 3.79L57.39 6.69Z" fill="#545659" fill-opacity="1.000000" fill-rule="nonzero"/>
	<path id="Vector" d="M64.29 2.9L63.19 2.9L63.19 5.09C63.19 5.7 63.39 5.9 63.79 5.9C63.99 5.9 64.09 5.9 64.29 5.9L64.29 6.7C64.09 6.79 63.79 6.79 63.49 6.79C63.09 6.79 62.79 6.7 62.59 6.4C62.39 6.2 62.29 5.7 62.29 5.2L62.29 2.9L61.59 2.9L61.59 2.09L62.29 2.09L62.29 1.29L63.29 1L63.29 2.09L64.39 2.09L64.39 2.9L64.29 2.9Z" fill="#545659" fill-opacity="1.000000" fill-rule="nonzero"/>
	<path id="Vector" d="M69.7 6.7L68.7 6.7L68.7 4.09C68.7 3.29 68.4 2.9 67.8 2.9C67.3 2.9 67 3.09 66.8 3.59C66.8 3.7 66.8 3.79 66.8 4L66.8 6.7L65.8 6.7L65.8 0L66.8 0L66.8 2.79C67.1 2.29 67.6 2 68.2 2C68.6 2 69 2.09 69.2 2.4C69.5 2.7 69.7 3.29 69.7 3.9L69.7 6.7Z" fill="#545659" fill-opacity="1.000000" fill-rule="nonzero"/>
	<path id="Vector" d="M75.2 4.2C75.2 4.4 75.2 4.5 75.2 4.7L72.2 4.7C72.2 5.2 72.4 5.5 72.6 5.7C72.9 5.9 73.2 6 73.6 6C74.1 6 74.5 5.9 74.8 5.8L75 6.5C74.6 6.7 74.1 6.8 73.5 6.8C72.8 6.8 72.2 6.6 71.8 6.2C71.4 5.8 71.2 5.2 71.2 4.5C71.2 3.8 71.4 3.2 71.8 2.8C72.2 2.3 72.7 2.1 73.4 2.1C74.1 2.1 74.6 2.3 74.9 2.8C75.1 3.1 75.2 3.6 75.2 4.2ZM74.2 3.9C74.2 3.6 74.1 3.3 74 3.1C73.8 2.8 73.6 2.7 73.2 2.7C72.9 2.7 72.6 2.8 72.4 3.1C72.2 3.3 72.1 3.6 72.1 3.9L74.2 3.9Z" fill="#545659" fill-opacity="1.000000" fill-rule="nonzero"/>
</svg>



