<svg width="70.000000" height="60.000000" viewBox="0 0 70 60" fill="none" xmlns="http://www.w3.org/2000/svg" xmlns:xlink="http://www.w3.org/1999/xlink">
	<desc>
			Created with Pixso.
	</desc>
	<defs>
		<clipPath id="clip1_291">
			<rect id="Frame" rx="5.000000" width="70.000000" height="60.000000" fill="white" fill-opacity="0"/>
		</clipPath>
	</defs>
	<rect id="Frame" rx="5.000000" width="70.000000" height="60.000000" fill="#FF814A" fill-opacity="0.120000"/>
	<g clip-path="url(#clip1_291)">
		<path id="Vector" d="M56.6 17.43C57.35 17.43 57.96 16.9 57.96 16.25L57.96 3.51C57.96 1.57 56.12 0 53.86 0L4.1 0C1.83 0 0 1.57 0 3.51L0 56.48C0 58.42 1.83 60 4.1 60L53.86 60C56.12 60 57.96 58.42 57.96 56.48L57.96 47.85C57.96 47.2 57.35 46.67 56.6 46.67C55.84 46.67 55.23 47.2 55.23 47.85L55.23 56.48C55.23 57.13 54.62 57.65 53.86 57.65L4.1 57.65C3.34 57.65 2.73 57.13 2.73 56.48L2.73 3.51C2.73 2.86 3.34 2.34 4.1 2.34L53.86 2.34C54.62 2.34 55.23 2.86 55.23 3.51L55.23 16.25C55.23 16.9 55.84 17.43 56.6 17.43Z" fill="#FF814A" fill-opacity="1.000000" fill-rule="nonzero"/>
		<path id="Vector" d="M28.98 6.32C22.04 6.32 16.4 11.16 16.4 17.1C16.4 20.19 17.92 22.97 20.35 24.94C20.4 24.98 20.44 25.02 20.5 25.06C22.74 26.81 25.71 27.89 28.98 27.89C32.24 27.89 35.22 26.81 37.46 25.06C37.51 25.02 37.56 24.98 37.61 24.94C40.04 22.97 41.56 20.19 41.56 17.1C41.56 11.16 35.91 6.32 28.98 6.32ZM28.98 25.54C26.75 25.54 24.69 24.9 23.03 23.82C24.24 22 26.48 20.85 28.98 20.85C31.48 20.85 33.72 22 34.93 23.82C33.27 24.9 31.21 25.54 28.98 25.54ZM26.79 16.64L26.79 15.87C26.79 14.84 27.77 14 28.98 14C30.19 14 31.17 14.84 31.17 15.87L31.17 16.64C31.17 17.67 30.19 18.51 28.98 18.51C27.77 18.51 26.79 17.67 26.79 16.64ZM36.9 22.11C35.89 20.82 34.5 19.83 32.87 19.21C33.52 18.5 33.9 17.61 33.9 16.64L33.9 15.87C33.9 13.55 31.69 11.66 28.98 11.66C26.27 11.66 24.06 13.55 24.06 15.87L24.06 16.64C24.06 17.61 24.44 18.5 25.09 19.21C23.46 19.83 22.07 20.82 21.06 22.11C19.85 20.71 19.14 18.98 19.14 17.1C19.14 12.45 23.55 8.67 28.98 8.67C34.41 8.67 38.82 12.45 38.82 17.1C38.82 18.98 38.11 20.71 36.9 22.11Z" fill="#FF814A" fill-opacity="1.000000" fill-rule="nonzero"/>
		<path id="Vector" d="M36.36 51.32L28.98 51.32C28.22 51.32 27.61 51.85 27.61 52.49C27.61 53.14 28.22 53.67 28.98 53.67L36.36 53.67C37.12 53.67 37.73 53.14 37.73 52.49C37.73 51.85 37.12 51.32 36.36 51.32Z" fill="#FF814A" fill-opacity="1.000000" fill-rule="nonzero"/>
		<path id="Vector" d="M36.36 44.76L16.95 44.76C16.19 44.76 15.58 45.29 15.58 45.93C15.58 46.58 16.19 47.1 16.95 47.1L36.36 47.1C37.12 47.1 37.73 46.58 37.73 45.93C37.73 45.29 37.12 44.76 36.36 44.76Z" fill="#FF814A" fill-opacity="1.000000" fill-rule="nonzero"/>
		<path id="Vector" d="M36.36 38.2L16.95 38.2C16.19 38.2 15.58 38.72 15.58 39.37C15.58 40.02 16.19 40.54 16.95 40.54L36.36 40.54C37.12 40.54 37.73 40.02 37.73 39.37C37.73 38.72 37.12 38.2 36.36 38.2Z" fill="#FF814A" fill-opacity="1.000000" fill-rule="nonzero"/>
		<path id="Vector" d="M12.08 31.98C11.82 31.76 11.47 31.64 11.11 31.64C10.75 31.64 10.4 31.76 10.14 31.98C9.89 32.2 9.74 32.5 9.74 32.81C9.74 33.12 9.89 33.42 10.14 33.64C10.4 33.85 10.75 33.98 11.11 33.98C11.47 33.98 11.82 33.85 12.08 33.64C12.33 33.42 12.48 33.12 12.48 32.81C12.48 32.5 12.33 32.2 12.08 31.98Z" fill="#FF814A" fill-opacity="1.000000" fill-rule="nonzero"/>
		<path id="Vector" d="M12.08 38.54C11.82 38.32 11.47 38.2 11.11 38.2C10.75 38.2 10.4 38.32 10.14 38.54C9.89 38.76 9.74 39.06 9.74 39.37C9.74 39.68 9.89 39.98 10.14 40.2C10.4 40.42 10.75 40.54 11.11 40.54C11.47 40.54 11.82 40.42 12.08 40.2C12.33 39.98 12.48 39.68 12.48 39.37C12.48 39.06 12.33 38.76 12.08 38.54Z" fill="#FF814A" fill-opacity="1.000000" fill-rule="nonzero"/>
		<path id="Vector" d="M12.08 45.1C11.82 44.89 11.47 44.76 11.11 44.76C10.75 44.76 10.4 44.89 10.14 45.1C9.89 45.32 9.74 45.62 9.74 45.93C9.74 46.24 9.89 46.54 10.14 46.76C10.4 46.98 10.75 47.1 11.11 47.1C11.47 47.1 11.82 46.98 12.08 46.76C12.33 46.54 12.48 46.24 12.48 45.93C12.48 45.62 12.33 45.32 12.08 45.1Z" fill="#FF814A" fill-opacity="1.000000" fill-rule="nonzero"/>
		<path id="Vector" d="M36.36 31.64L16.95 31.64C16.19 31.64 15.58 32.16 15.58 32.81C15.58 33.45 16.19 33.98 16.95 33.98L36.36 33.98C37.12 33.98 37.73 33.45 37.73 32.81C37.73 32.16 37.12 31.64 36.36 31.64Z" fill="#FF814A" fill-opacity="1.000000" fill-rule="nonzero"/>
		<path id="Vector" d="M67.12 15.27C65.8 14.61 64.25 14.43 62.77 14.78C61.29 15.12 60.05 15.93 59.28 17.07L42.08 42.61C41.98 42.75 41.92 42.91 41.9 43.07L40.69 52.36C40.63 52.83 40.89 53.28 41.36 53.51C41.58 53.61 41.81 53.67 42.05 53.67C42.33 53.67 42.62 53.59 42.86 53.44L51.65 47.89C51.8 47.79 51.93 47.67 52.02 47.53L69.23 21.99C70.81 19.64 69.87 16.62 67.12 15.27ZM43.75 49.96L44.39 45.11L48.34 47.07L43.75 49.96ZM50.34 45.35L45.13 42.77L58.93 22.27L64.14 24.85L50.34 45.35ZM66.86 20.82L65.51 22.82L60.3 20.24L61.65 18.24C62.05 17.64 62.7 17.22 63.47 17.04C64.25 16.86 65.06 16.95 65.76 17.3C66.45 17.64 66.95 18.2 67.16 18.86C67.37 19.53 67.26 20.22 66.86 20.82Z" fill="#FF814A" fill-opacity="1.000000" fill-rule="nonzero"/>
	</g>
</svg>
